<?xml version="1.0" encoding="UTF-8"?>
<svg xmlns="http://www.w3.org/2000/svg" width="126" height="36" viewBox="0 0 126 36" fill="none">
  <path d="M26.5301 12.6246L26.5282 12.5136C26.474 11.0545 25.9343 10.0185 24.8229 9.24957C23.9294 8.64669 22.6752 8.31494 21.2926 8.31494H21.2561C20.1407 8.31494 18.9721 8.54272 18.1349 8.92207L18.0986 8.93822L18.0686 8.9249C17.4065 8.62346 16.5328 8.41608 15.6081 8.34157C15.5885 8.34016 15.567 8.33902 15.5494 8.33987L14.0655 8.35942C14.0445 8.3597 14.0241 8.3614 14.0032 8.36339C12.9697 8.48039 12.0608 8.78721 11.3707 9.25467C10.2649 10.0176 9.72409 11.0531 9.66998 12.5297L9.66828 12.6614C9.66715 12.7252 9.66602 12.7858 9.66602 12.8493C9.68273 14.8724 10.1428 15.701 10.6754 16.6612L10.7624 16.8176C11.3307 17.7995 11.884 18.9339 11.8684 21.0255C11.8665 24.0444 12.4291 25.6253 12.9028 26.4228C13.4295 27.3005 13.755 27.6849 14.6562 27.6849C15.5208 27.6849 16.0285 26.9452 16.0818 26.2285C16.1172 25.8687 16.1237 25.4559 16.1308 25.0187C16.1469 24.0317 16.1671 22.8027 16.5337 21.5627L16.5461 21.5213C16.6997 21.0227 16.8733 20.4572 17.2051 19.958C17.3912 19.677 17.7864 19.392 18.1814 19.392C18.4873 19.392 18.757 19.5773 18.9843 19.9424C19.3174 20.4782 19.5095 21.059 19.6616 21.557C20.0331 22.8016 20.1926 24.2425 20.09 25.4125C20.0209 26.2109 20.1747 26.822 20.5467 27.228C20.9351 27.6518 21.4065 27.6844 21.542 27.6844H21.5425C22.3936 27.6844 22.7715 27.2948 23.2976 26.4194C23.7702 25.6247 24.3337 24.0439 24.3305 21.021C24.3164 18.9361 24.8708 17.7995 25.4454 16.8042L25.5224 16.6643C26.0545 15.7044 26.5146 14.8752 26.5321 12.8433C26.5327 12.7725 26.5316 12.6997 26.5301 12.6246ZM24.4252 16.0566L24.3526 16.1878C23.7265 17.2723 23.0596 18.6307 23.0761 21.0261C23.0789 23.9045 22.5403 25.2391 22.2202 25.7766C21.8349 26.4186 21.7695 26.4302 21.5547 26.4307C21.4366 26.4115 21.2853 26.1562 21.34 25.5222C21.4572 24.183 21.2836 22.6078 20.8629 21.1952C20.6728 20.5745 20.4427 19.9127 20.0498 19.2806C19.5922 18.544 18.929 18.1386 18.1814 18.1386C17.3003 18.1386 16.5311 18.7047 16.1591 19.2653C15.7279 19.9155 15.5166 20.6017 15.3472 21.1533L15.3319 21.2009C14.9151 22.6123 14.8936 23.9359 14.8766 24.9995C14.8698 25.4273 14.8636 25.7967 14.8318 26.1211C14.8315 26.1239 14.7905 26.431 14.6562 26.431C14.3921 26.431 14.3706 26.431 13.9794 25.7791C13.6584 25.2392 13.1207 23.9045 13.1224 21.0309C13.1402 18.6279 12.4739 17.2714 11.854 16.2005L11.7718 16.0526C11.2851 15.1761 10.9335 14.5429 10.9194 12.8447C10.9194 12.7943 10.9208 12.7408 10.9219 12.6852L10.9236 12.5603C10.963 11.5019 11.3098 10.8225 12.0787 10.2916C12.5906 9.94481 13.2938 9.71108 14.1136 9.61476L15.5361 9.59577C16.2977 9.6598 17.03 9.83149 17.5553 10.0706L17.8193 10.1873L19.7954 11.2353C19.8891 11.2849 19.9897 11.3084 20.0889 11.3084C20.3135 11.3084 20.5308 11.1874 20.6436 10.9749C20.8056 10.6689 20.6892 10.2893 20.3832 10.1267L19.665 9.74564C20.1693 9.63487 20.7229 9.57084 21.2558 9.57084H21.2924C22.4111 9.57084 23.4424 9.83347 24.1149 10.2865C24.8881 10.8216 25.2346 11.5016 25.2734 12.5473L25.2754 12.6481C25.2768 12.7153 25.2782 12.7807 25.2782 12.8388C25.2623 14.546 24.9113 15.1795 24.4252 16.0566Z" fill="white"></path>
  <circle cx="18.0996" cy="18" r="17.5" stroke="white"></circle>
  <path d="M43.9149 16V6.06H47.6249C48.7169 6.06 49.6269 6.284 50.3549 6.732C51.0922 7.17067 51.6476 7.768 52.0209 8.524C52.3942 9.27067 52.5809 10.1013 52.5809 11.016C52.5809 12.024 52.3756 12.9013 51.9649 13.648C51.5542 14.3947 50.9756 14.9733 50.2289 15.384C49.4916 15.7947 48.6236 16 47.6249 16H43.9149ZM50.2429 11.016C50.2429 10.4373 50.1402 9.92867 49.9349 9.49C49.7296 9.042 49.4309 8.69667 49.0389 8.454C48.6469 8.202 48.1756 8.076 47.6249 8.076H46.2109V13.984H47.6249C48.1849 13.984 48.6562 13.858 49.0389 13.606C49.4309 13.3447 49.7296 12.99 49.9349 12.542C50.1402 12.0847 50.2429 11.576 50.2429 11.016ZM53.9364 16V6.06H58.4164C58.883 6.06 59.3124 6.158 59.7044 6.354C60.1057 6.54067 60.451 6.79733 60.7404 7.124C61.0297 7.44133 61.2537 7.80067 61.4124 8.202C61.5804 8.60333 61.6644 9.00933 61.6644 9.42C61.6644 9.83067 61.599 10.2227 61.4684 10.596C61.3377 10.96 61.151 11.2913 60.9084 11.59C60.6657 11.8793 60.3764 12.1173 60.0404 12.304L62.2244 16H59.6904L57.7864 12.794H56.2324V16H53.9364ZM56.2324 10.792H58.3324C58.519 10.792 58.6824 10.736 58.8224 10.624C58.9717 10.5027 59.093 10.3393 59.1864 10.134C59.2797 9.92867 59.3264 9.69067 59.3264 9.42C59.3264 9.14933 59.2704 8.916 59.1584 8.72C59.0557 8.51467 58.925 8.356 58.7664 8.244C58.6077 8.132 58.4397 8.076 58.2624 8.076H56.2324V10.792ZM63.1193 16V13.718H64.9533V16H63.1193ZM75.8965 8.972C75.8685 8.92533 75.7705 8.85533 75.6025 8.762C75.4345 8.65933 75.2245 8.552 74.9725 8.44C74.7205 8.328 74.4451 8.23 74.1465 8.146C73.8478 8.062 73.5491 8.02 73.2505 8.02C72.8585 8.02 72.5551 8.09 72.3405 8.23C72.1258 8.36067 72.0185 8.566 72.0185 8.846C72.0185 9.07 72.0978 9.24733 72.2565 9.378C72.4245 9.50867 72.6625 9.62533 72.9705 9.728C73.2785 9.82133 73.6565 9.93333 74.1045 10.064C74.7391 10.232 75.2898 10.4373 75.7565 10.68C76.2231 10.9133 76.5778 11.2167 76.8205 11.59C77.0725 11.9633 77.1985 12.458 77.1985 13.074C77.1985 13.634 77.0958 14.11 76.8905 14.502C76.6851 14.8847 76.4051 15.1973 76.0505 15.44C75.7051 15.6733 75.3085 15.846 74.8605 15.958C74.4125 16.0607 73.9505 16.112 73.4745 16.112C72.9891 16.112 72.4898 16.0653 71.9765 15.972C71.4725 15.8693 70.9871 15.7293 70.5205 15.552C70.0538 15.3653 69.6245 15.1413 69.2325 14.88L70.2405 12.878C70.2778 12.9247 70.3991 13.0133 70.6045 13.144C70.8098 13.2653 71.0618 13.396 71.3605 13.536C71.6685 13.6667 72.0091 13.7833 72.3825 13.886C72.7558 13.9887 73.1338 14.04 73.5165 14.04C73.9271 14.04 74.2305 13.9747 74.4265 13.844C74.6318 13.7133 74.7345 13.5313 74.7345 13.298C74.7345 13.046 74.6271 12.85 74.4125 12.71C74.2071 12.57 73.9225 12.444 73.5585 12.332C73.2038 12.22 72.7931 12.094 72.3265 11.954C71.7198 11.7673 71.2158 11.5573 70.8145 11.324C70.4225 11.0907 70.1285 10.806 69.9325 10.47C69.7458 10.134 69.6525 9.714 69.6525 9.21C69.6525 8.51 69.8158 7.922 70.1425 7.446C70.4785 6.96067 70.9265 6.59667 71.4865 6.354C72.0465 6.102 72.6578 5.976 73.3205 5.976C73.7871 5.976 74.2351 6.032 74.6645 6.144C75.1031 6.256 75.5091 6.396 75.8825 6.564C76.2651 6.732 76.6058 6.9 76.9045 7.068L75.8965 8.972ZM86.3858 16V10.078L84.2438 14.39H82.9838L80.8418 10.078V16H78.5458V6.06H81.0378L83.6138 11.254L86.2038 6.06H88.6818V16H86.3858ZM90.5907 16V6.06H92.8867V16H90.5907ZM102.362 8.076H99.3379V16H97.0419V8.076H94.0039V6.06H102.362V8.076ZM112.037 6.06V16H109.741V11.926H105.779V16H103.483V6.06H105.779V9.91H109.741V6.06H112.037ZM113.788 9.042V5.836H115.678V9.042H113.788ZM123.406 8.972C123.378 8.92533 123.28 8.85533 123.112 8.762C122.944 8.65933 122.734 8.552 122.482 8.44C122.23 8.328 121.955 8.23 121.656 8.146C121.358 8.062 121.059 8.02 120.76 8.02C120.368 8.02 120.065 8.09 119.85 8.23C119.636 8.36067 119.528 8.566 119.528 8.846C119.528 9.07 119.608 9.24733 119.766 9.378C119.934 9.50867 120.172 9.62533 120.48 9.728C120.788 9.82133 121.166 9.93333 121.614 10.064C122.249 10.232 122.8 10.4373 123.266 10.68C123.733 10.9133 124.088 11.2167 124.33 11.59C124.582 11.9633 124.708 12.458 124.708 13.074C124.708 13.634 124.606 14.11 124.4 14.502C124.195 14.8847 123.915 15.1973 123.56 15.44C123.215 15.6733 122.818 15.846 122.37 15.958C121.922 16.0607 121.46 16.112 120.984 16.112C120.499 16.112 120 16.0653 119.486 15.972C118.982 15.8693 118.497 15.7293 118.03 15.552C117.564 15.3653 117.134 15.1413 116.742 14.88L117.75 12.878C117.788 12.9247 117.909 13.0133 118.114 13.144C118.32 13.2653 118.572 13.396 118.87 13.536C119.178 13.6667 119.519 13.7833 119.892 13.886C120.266 13.9887 120.644 14.04 121.026 14.04C121.437 14.04 121.74 13.9747 121.936 13.844C122.142 13.7133 122.244 13.5313 122.244 13.298C122.244 13.046 122.137 12.85 121.922 12.71C121.717 12.57 121.432 12.444 121.068 12.332C120.714 12.22 120.303 12.094 119.836 11.954C119.23 11.7673 118.726 11.5573 118.324 11.324C117.932 11.0907 117.638 10.806 117.442 10.47C117.256 10.134 117.162 9.714 117.162 9.21C117.162 8.51 117.326 7.922 117.652 7.446C117.988 6.96067 118.436 6.59667 118.996 6.354C119.556 6.102 120.168 5.976 120.83 5.976C121.297 5.976 121.745 6.032 122.174 6.144C122.613 6.256 123.019 6.396 123.392 6.564C123.775 6.732 124.116 6.9 124.414 7.068L123.406 8.972Z" fill="white"></path>
  <path d="M43.9233 31V21.77H47.1993C48.196 21.77 49.028 21.978 49.6953 22.394C50.3626 22.8013 50.861 23.356 51.1903 24.058C51.5283 24.7513 51.6973 25.5227 51.6973 26.372C51.6973 27.308 51.511 28.1227 51.1383 28.816C50.7743 29.5093 50.2543 30.0467 49.5783 30.428C48.9023 30.8093 48.1093 31 47.1993 31H43.9233ZM50.2153 26.372C50.2153 25.722 50.094 25.15 49.8513 24.656C49.6173 24.1533 49.275 23.7633 48.8243 23.486C48.3823 23.2 47.8406 23.057 47.1993 23.057H45.3793V29.713H47.1993C47.8493 29.713 48.3953 29.5657 48.8373 29.271C49.288 28.9763 49.6303 28.5777 49.8643 28.075C50.0983 27.5723 50.2153 27.0047 50.2153 26.372ZM56.128 31.13C55.5993 31.13 55.1183 31.039 54.685 30.857C54.2603 30.6663 53.892 30.4107 53.58 30.09C53.268 29.7607 53.0253 29.388 52.852 28.972C52.6873 28.5473 52.605 28.0967 52.605 27.62C52.605 26.9787 52.7523 26.3937 53.047 25.865C53.3416 25.3277 53.7533 24.8987 54.282 24.578C54.8106 24.2487 55.4303 24.084 56.141 24.084C56.8516 24.084 57.4626 24.2487 57.974 24.578C58.494 24.8987 58.897 25.3233 59.183 25.852C59.469 26.3807 59.612 26.9483 59.612 27.555C59.612 27.659 59.6076 27.7587 59.599 27.854C59.5903 27.9407 59.5816 28.0143 59.573 28.075H54.126C54.152 28.4737 54.2603 28.8247 54.451 29.128C54.6503 29.4227 54.9016 29.6567 55.205 29.83C55.5083 29.9947 55.8333 30.077 56.18 30.077C56.5613 30.077 56.921 29.9817 57.259 29.791C57.6056 29.6003 57.8396 29.349 57.961 29.037L59.183 29.388C59.0356 29.7173 58.8103 30.0163 58.507 30.285C58.2123 30.545 57.8613 30.753 57.454 30.909C57.0466 31.0563 56.6046 31.13 56.128 31.13ZM54.087 27.126H58.195C58.169 26.736 58.0563 26.3937 57.857 26.099C57.6663 25.7957 57.4193 25.5617 57.116 25.397C56.8213 25.2237 56.492 25.137 56.128 25.137C55.7726 25.137 55.4433 25.2237 55.14 25.397C54.8453 25.5617 54.6026 25.7957 54.412 26.099C54.2213 26.3937 54.113 26.736 54.087 27.126ZM66.8754 31H65.4454V27.191C65.4454 26.5583 65.3414 26.0947 65.1334 25.8C64.9341 25.5053 64.6351 25.358 64.2364 25.358C63.9591 25.358 63.6817 25.4273 63.4044 25.566C63.1357 25.7047 62.8931 25.8953 62.6764 26.138C62.4597 26.372 62.3037 26.645 62.2084 26.957V31H60.7784V24.201H62.0784V25.566C62.2517 25.2627 62.4771 25.0027 62.7544 24.786C63.0404 24.5607 63.3611 24.3873 63.7164 24.266C64.0717 24.1447 64.4487 24.084 64.8474 24.084C65.2547 24.084 65.5884 24.1577 65.8484 24.305C66.1171 24.4523 66.3251 24.656 66.4724 24.916C66.6284 25.1673 66.7324 25.462 66.7844 25.8C66.8451 26.1293 66.8754 26.4803 66.8754 26.853V31ZM72.2675 30.649C72.1461 30.7097 71.9945 30.7747 71.8125 30.844C71.6305 30.9133 71.4225 30.974 71.1885 31.026C70.9631 31.078 70.7291 31.104 70.4865 31.104C70.1918 31.104 69.9188 31.052 69.6675 30.948C69.4161 30.844 69.2125 30.6793 69.0565 30.454C68.9091 30.22 68.8355 29.921 68.8355 29.557V25.306H67.9385V24.201H68.8355V21.965H70.2655V24.201H71.7475V25.306H70.2655V29.102C70.2828 29.336 70.3565 29.5093 70.4865 29.622C70.6251 29.7347 70.7941 29.791 70.9935 29.791C71.1928 29.791 71.3835 29.7563 71.5655 29.687C71.7475 29.6177 71.8818 29.5613 71.9685 29.518L72.2675 30.649ZM72.7639 29.011C72.7639 28.5777 72.8852 28.2007 73.1279 27.88C73.3792 27.5507 73.7216 27.2993 74.1549 27.126C74.5882 26.944 75.0909 26.853 75.6629 26.853C75.9662 26.853 76.2739 26.8747 76.5859 26.918C76.9066 26.9613 77.1882 27.0307 77.4309 27.126V26.697C77.4309 26.2203 77.2879 25.8477 77.0019 25.579C76.7159 25.3103 76.3042 25.176 75.7669 25.176C75.3856 25.176 75.0259 25.2453 74.6879 25.384C74.3499 25.514 73.9902 25.7003 73.6089 25.943L73.1279 24.981C73.5786 24.6777 74.0292 24.4523 74.4799 24.305C74.9392 24.1577 75.4202 24.084 75.9229 24.084C76.8329 24.084 77.5479 24.3267 78.0679 24.812C78.5966 25.2887 78.8609 25.969 78.8609 26.853V29.388C78.8609 29.5527 78.8869 29.6697 78.9389 29.739C78.9996 29.8083 79.0992 29.8473 79.2379 29.856V31C79.1079 31.026 78.9909 31.0433 78.8869 31.052C78.7829 31.0607 78.6962 31.065 78.6269 31.065C78.3236 31.065 78.0939 30.9913 77.9379 30.844C77.7819 30.6967 77.6909 30.5233 77.6649 30.324L77.6259 29.934C77.3312 30.3153 76.9542 30.61 76.4949 30.818C76.0356 31.026 75.5719 31.13 75.1039 31.13C74.6532 31.13 74.2502 31.039 73.8949 30.857C73.5396 30.6663 73.2622 30.4107 73.0629 30.09C72.8636 29.7693 72.7639 29.4097 72.7639 29.011ZM77.0929 29.427C77.1969 29.3143 77.2792 29.2017 77.3399 29.089C77.4006 28.9763 77.4309 28.8767 77.4309 28.79V28.01C77.1882 27.9147 76.9326 27.8453 76.6639 27.802C76.3952 27.75 76.1309 27.724 75.8709 27.724C75.3509 27.724 74.9262 27.828 74.5969 28.036C74.2762 28.244 74.1159 28.53 74.1159 28.894C74.1159 29.0933 74.1679 29.284 74.2719 29.466C74.3846 29.648 74.5406 29.7953 74.7399 29.908C74.9479 30.0207 75.2036 30.077 75.5069 30.077C75.8189 30.077 76.1179 30.0163 76.4039 29.895C76.6899 29.7737 76.9196 29.6177 77.0929 29.427ZM80.6088 21.51H82.0388V29.037C82.0388 29.3837 82.0908 29.6047 82.1948 29.7C82.2988 29.7953 82.4288 29.843 82.5848 29.843C82.7581 29.843 82.9185 29.8257 83.0658 29.791C83.2218 29.7563 83.3561 29.713 83.4688 29.661L83.6768 30.792C83.4688 30.8787 83.2218 30.9523 82.9358 31.013C82.6498 31.0737 82.3941 31.104 82.1688 31.104C81.6835 31.104 81.3021 30.9697 81.0248 30.701C80.7475 30.4237 80.6088 30.0423 80.6088 29.557V21.51ZM86.9467 26.32C86.9467 25.7567 87.0464 25.2063 87.2457 24.669C87.445 24.123 87.7354 23.629 88.1167 23.187C88.5067 22.7363 88.979 22.381 89.5337 22.121C90.0884 21.8523 90.7167 21.718 91.4187 21.718C92.2507 21.718 92.97 21.9087 93.5767 22.29C94.1834 22.6627 94.634 23.1437 94.9287 23.733L93.7847 24.5C93.6114 24.1273 93.3904 23.8327 93.1217 23.616C92.8617 23.3993 92.5757 23.2477 92.2637 23.161C91.9604 23.0743 91.6614 23.031 91.3667 23.031C90.8814 23.031 90.4567 23.1307 90.0927 23.33C89.7287 23.5207 89.421 23.7763 89.1697 24.097C88.927 24.4177 88.7407 24.7773 88.6107 25.176C88.4894 25.5747 88.4287 25.9733 88.4287 26.372C88.4287 26.814 88.5024 27.243 88.6497 27.659C88.797 28.0663 89.0007 28.4303 89.2607 28.751C89.5294 29.063 89.8457 29.31 90.2097 29.492C90.5737 29.674 90.9724 29.765 91.4057 29.765C91.7004 29.765 92.008 29.713 92.3287 29.609C92.6494 29.505 92.944 29.3447 93.2127 29.128C93.49 28.9027 93.7067 28.608 93.8627 28.244L95.0717 28.933C94.881 29.3923 94.582 29.7823 94.1747 30.103C93.776 30.4237 93.3254 30.6663 92.8227 30.831C92.3287 30.9957 91.839 31.078 91.3537 31.078C90.7037 31.078 90.11 30.9437 89.5727 30.675C89.0354 30.3977 88.5717 30.0337 88.1817 29.583C87.7917 29.1237 87.4884 28.6123 87.2717 28.049C87.055 27.477 86.9467 26.9007 86.9467 26.32ZM95.7424 29.011C95.7424 28.5777 95.8638 28.2007 96.1064 27.88C96.3578 27.5507 96.7001 27.2993 97.1334 27.126C97.5668 26.944 98.0694 26.853 98.6414 26.853C98.9448 26.853 99.2524 26.8747 99.5644 26.918C99.8851 26.9613 100.167 27.0307 100.409 27.126V26.697C100.409 26.2203 100.266 25.8477 99.9804 25.579C99.6944 25.3103 99.2828 25.176 98.7454 25.176C98.3641 25.176 98.0044 25.2453 97.6664 25.384C97.3284 25.514 96.9688 25.7003 96.5874 25.943L96.1064 24.981C96.5571 24.6777 97.0078 24.4523 97.4584 24.305C97.9178 24.1577 98.3988 24.084 98.9014 24.084C99.8114 24.084 100.526 24.3267 101.046 24.812C101.575 25.2887 101.839 25.969 101.839 26.853V29.388C101.839 29.5527 101.865 29.6697 101.917 29.739C101.978 29.8083 102.078 29.8473 102.216 29.856V31C102.086 31.026 101.969 31.0433 101.865 31.052C101.761 31.0607 101.675 31.065 101.605 31.065C101.302 31.065 101.072 30.9913 100.916 30.844C100.76 30.6967 100.669 30.5233 100.643 30.324L100.604 29.934C100.31 30.3153 99.9328 30.61 99.4734 30.818C99.0141 31.026 98.5504 31.13 98.0824 31.13C97.6318 31.13 97.2288 31.039 96.8734 30.857C96.5181 30.6663 96.2408 30.4107 96.0414 30.09C95.8421 29.7693 95.7424 29.4097 95.7424 29.011ZM100.071 29.427C100.175 29.3143 100.258 29.2017 100.318 29.089C100.379 28.9763 100.409 28.8767 100.409 28.79V28.01C100.167 27.9147 99.9111 27.8453 99.6424 27.802C99.3738 27.75 99.1094 27.724 98.8494 27.724C98.3294 27.724 97.9048 27.828 97.5754 28.036C97.2548 28.244 97.0944 28.53 97.0944 28.894C97.0944 29.0933 97.1464 29.284 97.2504 29.466C97.3631 29.648 97.5191 29.7953 97.7184 29.908C97.9264 30.0207 98.1821 30.077 98.4854 30.077C98.7974 30.077 99.0964 30.0163 99.3824 29.895C99.6684 29.7737 99.8981 29.6177 100.071 29.427ZM107.396 25.436C106.842 25.4447 106.348 25.5703 105.914 25.813C105.49 26.0557 105.186 26.398 105.004 26.84V31H103.574V24.201H104.9V25.722C105.134 25.254 105.442 24.8813 105.823 24.604C106.205 24.318 106.608 24.162 107.032 24.136C107.119 24.136 107.188 24.136 107.24 24.136C107.301 24.136 107.353 24.1403 107.396 24.149V25.436ZM111.391 31.13C110.862 31.13 110.381 31.039 109.948 30.857C109.523 30.6663 109.155 30.4107 108.843 30.09C108.531 29.7607 108.288 29.388 108.115 28.972C107.95 28.5473 107.868 28.0967 107.868 27.62C107.868 26.9787 108.015 26.3937 108.31 25.865C108.604 25.3277 109.016 24.8987 109.545 24.578C110.073 24.2487 110.693 24.084 111.404 24.084C112.114 24.084 112.725 24.2487 113.237 24.578C113.757 24.8987 114.16 25.3233 114.446 25.852C114.732 26.3807 114.875 26.9483 114.875 27.555C114.875 27.659 114.87 27.7587 114.862 27.854C114.853 27.9407 114.844 28.0143 114.836 28.075H109.389C109.415 28.4737 109.523 28.8247 109.714 29.128C109.913 29.4227 110.164 29.6567 110.468 29.83C110.771 29.9947 111.096 30.077 111.443 30.077C111.824 30.077 112.184 29.9817 112.522 29.791C112.868 29.6003 113.102 29.349 113.224 29.037L114.446 29.388C114.298 29.7173 114.073 30.0163 113.77 30.285C113.475 30.545 113.124 30.753 112.717 30.909C112.309 31.0563 111.867 31.13 111.391 31.13ZM109.35 27.126H113.458C113.432 26.736 113.319 26.3937 113.12 26.099C112.929 25.7957 112.682 25.5617 112.379 25.397C112.084 25.2237 111.755 25.137 111.391 25.137C111.035 25.137 110.706 25.2237 110.403 25.397C110.108 25.5617 109.865 25.7957 109.675 26.099C109.484 26.3937 109.376 26.736 109.35 27.126Z" fill="white"></path>
</svg>
