<?xml version="1.0" encoding="UTF-8"?>
<svg xmlns="http://www.w3.org/2000/svg" width="127" height="36" viewBox="0 0 127 36" fill="none">
  <path d="M27.2977 12.6251L27.2957 12.514C27.2416 11.055 26.7019 10.019 25.5905 9.25006C24.697 8.64718 23.4428 8.31543 22.0602 8.31543H22.0237C20.9083 8.31543 19.7397 8.54321 18.9025 8.92256L18.8662 8.93871L18.8362 8.92539C18.1741 8.62395 17.3004 8.41657 16.3757 8.34206C16.3561 8.34064 16.3346 8.33951 16.317 8.34036L14.8331 8.35991C14.8121 8.36019 14.7917 8.36189 14.7707 8.36388C13.7372 8.48088 12.8284 8.7877 12.1383 9.25516C11.0325 10.0181 10.4917 11.0536 10.4376 12.5302L10.4359 12.6619C10.4347 12.7257 10.4336 12.7863 10.4336 12.8498C10.4503 14.8729 10.9104 15.7015 11.443 16.6617L11.53 16.818C12.0983 17.8 12.6516 18.9344 12.636 21.026C12.634 24.0449 13.1967 25.6258 13.6704 26.4233C14.197 27.301 14.5226 27.6854 15.4238 27.6854C16.2884 27.6854 16.7961 26.9457 16.8494 26.2289C16.8848 25.8691 16.8913 25.4564 16.8984 25.0192C16.9145 24.0322 16.9346 22.8032 17.3012 21.5632L17.3137 21.5218C17.4673 21.0232 17.6409 20.4577 17.9727 19.9585C18.1588 19.6775 18.554 19.3925 18.9489 19.3925C19.2549 19.3925 19.5246 19.5777 19.7518 19.9429C20.085 20.4787 20.2771 21.0594 20.4292 21.5575C20.8006 22.8021 20.9601 24.243 20.8576 25.413C20.7885 26.2114 20.9423 26.8225 21.3143 27.2285C21.7027 27.6523 22.1741 27.6849 22.3095 27.6849H22.3101C23.1612 27.6849 23.5391 27.2953 24.0652 26.4199C24.5377 25.6252 25.1012 24.0444 25.0981 21.0215C25.084 18.9366 25.6384 17.8 26.2129 16.8047L26.29 16.6648C26.822 15.7049 27.2821 14.8757 27.2997 12.8438C27.3003 12.773 27.2991 12.7002 27.2977 12.6251ZM25.1927 16.0571L25.1202 16.1883C24.4941 17.2728 23.8272 18.6312 23.8436 21.0266C23.8465 23.905 23.3079 25.2396 22.9878 25.7771C22.6025 26.419 22.537 26.4307 22.3223 26.4312C22.2041 26.412 22.0529 26.1567 22.1075 25.5227C22.2248 24.1835 22.0512 22.6083 21.6304 21.1957C21.4403 20.575 21.2103 19.9132 20.8174 19.2811C20.3598 18.5445 19.6966 18.1391 18.9489 18.1391C18.0679 18.1391 17.2987 18.7052 16.9267 19.2658C16.4955 19.916 16.2842 20.6022 16.1147 21.1538L16.0994 21.2014C15.6827 22.6128 15.6612 23.9364 15.6442 25C15.6374 25.4278 15.6311 25.7972 15.5994 26.1216C15.5991 26.1244 15.558 26.4315 15.4238 26.4315C15.1597 26.4315 15.1382 26.4315 14.7469 25.7796C14.426 25.2396 13.8882 23.905 13.8899 21.0314C13.9078 18.6284 13.2414 17.2719 12.6216 16.201L12.5394 16.0531C12.0527 15.1766 11.7011 14.5434 11.6869 12.8452C11.6869 12.7948 11.6884 12.7413 11.6895 12.6857L11.6912 12.5608C11.7306 11.5024 12.0773 10.823 12.8462 10.2921C13.3582 9.9453 14.0613 9.71157 14.8812 9.61524L16.3037 9.59626C17.0652 9.66029 17.7976 9.83197 18.3228 10.0711L18.5869 10.1878L20.5629 11.2358C20.6567 11.2853 20.7573 11.3089 20.8565 11.3089C21.0811 11.3089 21.2984 11.1879 21.4112 10.9754C21.5732 10.6694 21.4568 10.2898 21.1508 10.1272L20.4326 9.74613C20.9369 9.63536 21.4905 9.57133 22.0234 9.57133H22.0599C23.1787 9.57133 24.21 9.83396 24.8825 10.287C25.6557 10.8221 26.0022 11.5021 26.041 12.5478L26.043 12.6486C26.0444 12.7158 26.0458 12.7812 26.0458 12.8393C26.0299 14.5465 25.6789 15.18 25.1927 16.0571Z" fill="#47A8A8"></path>
  <circle cx="18.8672" cy="18" r="17.5" stroke="#47A8A8"></circle>
  <path d="M44.6825 16V6.06H48.3925C49.4845 6.06 50.3945 6.284 51.1225 6.732C51.8598 7.17067 52.4151 7.768 52.7885 8.524C53.1618 9.27067 53.3485 10.1013 53.3485 11.016C53.3485 12.024 53.1431 12.9013 52.7325 13.648C52.3218 14.3947 51.7431 14.9733 50.9965 15.384C50.2591 15.7947 49.3911 16 48.3925 16H44.6825ZM51.0105 11.016C51.0105 10.4373 50.9078 9.92867 50.7025 9.49C50.4971 9.042 50.1985 8.69667 49.8065 8.454C49.4145 8.202 48.9431 8.076 48.3925 8.076H46.9785V13.984H48.3925C48.9525 13.984 49.4238 13.858 49.8065 13.606C50.1985 13.3447 50.4971 12.99 50.7025 12.542C50.9078 12.0847 51.0105 11.576 51.0105 11.016ZM54.704 16V6.06H59.184C59.6506 6.06 60.08 6.158 60.472 6.354C60.8733 6.54067 61.2186 6.79733 61.508 7.124C61.7973 7.44133 62.0213 7.80067 62.18 8.202C62.348 8.60333 62.432 9.00933 62.432 9.42C62.432 9.83067 62.3666 10.2227 62.236 10.596C62.1053 10.96 61.9186 11.2913 61.676 11.59C61.4333 11.8793 61.144 12.1173 60.808 12.304L62.992 16H60.458L58.554 12.794H57V16H54.704ZM57 10.792H59.1C59.2866 10.792 59.45 10.736 59.59 10.624C59.7393 10.5027 59.8606 10.3393 59.954 10.134C60.0473 9.92867 60.094 9.69067 60.094 9.42C60.094 9.14933 60.038 8.916 59.926 8.72C59.8233 8.51467 59.6926 8.356 59.534 8.244C59.3753 8.132 59.2073 8.076 59.03 8.076H57V10.792ZM63.8869 16V13.718H65.7209V16H63.8869ZM76.664 8.972C76.636 8.92533 76.538 8.85533 76.37 8.762C76.202 8.65933 75.992 8.552 75.74 8.44C75.488 8.328 75.2127 8.23 74.914 8.146C74.6154 8.062 74.3167 8.02 74.018 8.02C73.626 8.02 73.3227 8.09 73.108 8.23C72.8934 8.36067 72.786 8.566 72.786 8.846C72.786 9.07 72.8654 9.24733 73.024 9.378C73.192 9.50867 73.43 9.62533 73.738 9.728C74.046 9.82133 74.424 9.93333 74.872 10.064C75.5067 10.232 76.0574 10.4373 76.524 10.68C76.9907 10.9133 77.3454 11.2167 77.588 11.59C77.84 11.9633 77.966 12.458 77.966 13.074C77.966 13.634 77.8634 14.11 77.658 14.502C77.4527 14.8847 77.1727 15.1973 76.818 15.44C76.4727 15.6733 76.076 15.846 75.628 15.958C75.18 16.0607 74.718 16.112 74.242 16.112C73.7567 16.112 73.2574 16.0653 72.744 15.972C72.24 15.8693 71.7547 15.7293 71.288 15.552C70.8214 15.3653 70.392 15.1413 70 14.88L71.008 12.878C71.0454 12.9247 71.1667 13.0133 71.372 13.144C71.5774 13.2653 71.8294 13.396 72.128 13.536C72.436 13.6667 72.7767 13.7833 73.15 13.886C73.5234 13.9887 73.9014 14.04 74.284 14.04C74.6947 14.04 74.998 13.9747 75.194 13.844C75.3994 13.7133 75.502 13.5313 75.502 13.298C75.502 13.046 75.3947 12.85 75.18 12.71C74.9747 12.57 74.69 12.444 74.326 12.332C73.9714 12.22 73.5607 12.094 73.094 11.954C72.4874 11.7673 71.9834 11.5573 71.582 11.324C71.19 11.0907 70.896 10.806 70.7 10.47C70.5134 10.134 70.42 9.714 70.42 9.21C70.42 8.51 70.5834 7.922 70.91 7.446C71.246 6.96067 71.694 6.59667 72.254 6.354C72.814 6.102 73.4254 5.976 74.088 5.976C74.5547 5.976 75.0027 6.032 75.432 6.144C75.8707 6.256 76.2767 6.396 76.65 6.564C77.0327 6.732 77.3734 6.9 77.672 7.068L76.664 8.972ZM87.1533 16V10.078L85.0113 14.39H83.7513L81.6093 10.078V16H79.3133V6.06H81.8053L84.3813 11.254L86.9713 6.06H89.4493V16H87.1533ZM91.3583 16V6.06H93.6543V16H91.3583ZM103.13 8.076H100.106V16H97.8095V8.076H94.7715V6.06H103.13V8.076ZM112.805 6.06V16H110.509V11.926H106.547V16H104.251V6.06H106.547V9.91H110.509V6.06H112.805ZM114.556 9.042V5.836H116.446V9.042H114.556ZM124.174 8.972C124.146 8.92533 124.048 8.85533 123.88 8.762C123.712 8.65933 123.502 8.552 123.25 8.44C122.998 8.328 122.722 8.23 122.424 8.146C122.125 8.062 121.826 8.02 121.528 8.02C121.136 8.02 120.832 8.09 120.618 8.23C120.403 8.36067 120.296 8.566 120.296 8.846C120.296 9.07 120.375 9.24733 120.534 9.378C120.702 9.50867 120.94 9.62533 121.248 9.728C121.556 9.82133 121.934 9.93333 122.382 10.064C123.016 10.232 123.567 10.4373 124.034 10.68C124.5 10.9133 124.855 11.2167 125.098 11.59C125.35 11.9633 125.476 12.458 125.476 13.074C125.476 13.634 125.373 14.11 125.168 14.502C124.962 14.8847 124.682 15.1973 124.328 15.44C123.982 15.6733 123.586 15.846 123.138 15.958C122.69 16.0607 122.228 16.112 121.752 16.112C121.266 16.112 120.767 16.0653 120.254 15.972C119.75 15.8693 119.264 15.7293 118.798 15.552C118.331 15.3653 117.902 15.1413 117.51 14.88L118.518 12.878C118.555 12.9247 118.676 13.0133 118.882 13.144C119.087 13.2653 119.339 13.396 119.638 13.536C119.946 13.6667 120.286 13.7833 120.66 13.886C121.033 13.9887 121.411 14.04 121.794 14.04C122.204 14.04 122.508 13.9747 122.704 13.844C122.909 13.7133 123.012 13.5313 123.012 13.298C123.012 13.046 122.904 12.85 122.69 12.71C122.484 12.57 122.2 12.444 121.836 12.332C121.481 12.22 121.07 12.094 120.604 11.954C119.997 11.7673 119.493 11.5573 119.092 11.324C118.7 11.0907 118.406 10.806 118.21 10.47C118.023 10.134 117.93 9.714 117.93 9.21C117.93 8.51 118.093 7.922 118.42 7.446C118.756 6.96067 119.204 6.59667 119.764 6.354C120.324 6.102 120.935 5.976 121.598 5.976C122.064 5.976 122.512 6.032 122.942 6.144C123.38 6.256 123.786 6.396 124.16 6.564C124.542 6.732 124.883 6.9 125.182 7.068L124.174 8.972Z" fill="#022639"></path>
  <path d="M44.6909 31V21.77H47.9669C48.9635 21.77 49.7955 21.978 50.4629 22.394C51.1302 22.8013 51.6285 23.356 51.9579 24.058C52.2959 24.7513 52.4649 25.5227 52.4649 26.372C52.4649 27.308 52.2785 28.1227 51.9059 28.816C51.5419 29.5093 51.0219 30.0467 50.3459 30.428C49.6699 30.8093 48.8769 31 47.9669 31H44.6909ZM50.9829 26.372C50.9829 25.722 50.8615 25.15 50.6189 24.656C50.3849 24.1533 50.0425 23.7633 49.5919 23.486C49.1499 23.2 48.6082 23.057 47.9669 23.057H46.1469V29.713H47.9669C48.6169 29.713 49.1629 29.5657 49.6049 29.271C50.0555 28.9763 50.3979 28.5777 50.6319 28.075C50.8659 27.5723 50.9829 27.0047 50.9829 26.372ZM56.8955 31.13C56.3669 31.13 55.8859 31.039 55.4525 30.857C55.0279 30.6663 54.6595 30.4107 54.3475 30.09C54.0355 29.7607 53.7929 29.388 53.6195 28.972C53.4549 28.5473 53.3725 28.0967 53.3725 27.62C53.3725 26.9787 53.5199 26.3937 53.8145 25.865C54.1092 25.3277 54.5209 24.8987 55.0495 24.578C55.5782 24.2487 56.1979 24.084 56.9085 24.084C57.6192 24.084 58.2302 24.2487 58.7415 24.578C59.2615 24.8987 59.6645 25.3233 59.9505 25.852C60.2365 26.3807 60.3795 26.9483 60.3795 27.555C60.3795 27.659 60.3752 27.7587 60.3665 27.854C60.3579 27.9407 60.3492 28.0143 60.3405 28.075H54.8935C54.9195 28.4737 55.0279 28.8247 55.2185 29.128C55.4179 29.4227 55.6692 29.6567 55.9725 29.83C56.2759 29.9947 56.6009 30.077 56.9475 30.077C57.3289 30.077 57.6885 29.9817 58.0265 29.791C58.3732 29.6003 58.6072 29.349 58.7285 29.037L59.9505 29.388C59.8032 29.7173 59.5779 30.0163 59.2745 30.285C58.9799 30.545 58.6289 30.753 58.2215 30.909C57.8142 31.0563 57.3722 31.13 56.8955 31.13ZM54.8545 27.126H58.9625C58.9365 26.736 58.8239 26.3937 58.6245 26.099C58.4339 25.7957 58.1869 25.5617 57.8835 25.397C57.5889 25.2237 57.2595 25.137 56.8955 25.137C56.5402 25.137 56.2109 25.2237 55.9075 25.397C55.6129 25.5617 55.3702 25.7957 55.1795 26.099C54.9889 26.3937 54.8805 26.736 54.8545 27.126ZM67.643 31H66.213V27.191C66.213 26.5583 66.109 26.0947 65.901 25.8C65.7017 25.5053 65.4027 25.358 65.004 25.358C64.7267 25.358 64.4493 25.4273 64.172 25.566C63.9033 25.7047 63.6607 25.8953 63.444 26.138C63.2273 26.372 63.0713 26.645 62.976 26.957V31H61.546V24.201H62.846V25.566C63.0193 25.2627 63.2447 25.0027 63.522 24.786C63.808 24.5607 64.1287 24.3873 64.484 24.266C64.8393 24.1447 65.2163 24.084 65.615 24.084C66.0223 24.084 66.356 24.1577 66.616 24.305C66.8847 24.4523 67.0927 24.656 67.24 24.916C67.396 25.1673 67.5 25.462 67.552 25.8C67.6127 26.1293 67.643 26.4803 67.643 26.853V31ZM73.035 30.649C72.9137 30.7097 72.762 30.7747 72.58 30.844C72.398 30.9133 72.19 30.974 71.956 31.026C71.7307 31.078 71.4967 31.104 71.254 31.104C70.9594 31.104 70.6864 31.052 70.435 30.948C70.1837 30.844 69.98 30.6793 69.824 30.454C69.6767 30.22 69.603 29.921 69.603 29.557V25.306H68.706V24.201H69.603V21.965H71.033V24.201H72.515V25.306H71.033V29.102C71.0504 29.336 71.124 29.5093 71.254 29.622C71.3927 29.7347 71.5617 29.791 71.761 29.791C71.9604 29.791 72.151 29.7563 72.333 29.687C72.515 29.6177 72.6494 29.5613 72.736 29.518L73.035 30.649ZM73.5315 29.011C73.5315 28.5777 73.6528 28.2007 73.8955 27.88C74.1468 27.5507 74.4891 27.2993 74.9225 27.126C75.3558 26.944 75.8585 26.853 76.4305 26.853C76.7338 26.853 77.0415 26.8747 77.3535 26.918C77.6741 26.9613 77.9558 27.0307 78.1985 27.126V26.697C78.1985 26.2203 78.0555 25.8477 77.7695 25.579C77.4835 25.3103 77.0718 25.176 76.5345 25.176C76.1531 25.176 75.7935 25.2453 75.4555 25.384C75.1175 25.514 74.7578 25.7003 74.3765 25.943L73.8955 24.981C74.3461 24.6777 74.7968 24.4523 75.2475 24.305C75.7068 24.1577 76.1878 24.084 76.6905 24.084C77.6005 24.084 78.3155 24.3267 78.8355 24.812C79.3641 25.2887 79.6285 25.969 79.6285 26.853V29.388C79.6285 29.5527 79.6545 29.6697 79.7065 29.739C79.7671 29.8083 79.8668 29.8473 80.0055 29.856V31C79.8755 31.026 79.7585 31.0433 79.6545 31.052C79.5505 31.0607 79.4638 31.065 79.3945 31.065C79.0911 31.065 78.8615 30.9913 78.7055 30.844C78.5495 30.6967 78.4585 30.5233 78.4325 30.324L78.3935 29.934C78.0988 30.3153 77.7218 30.61 77.2625 30.818C76.8031 31.026 76.3395 31.13 75.8715 31.13C75.4208 31.13 75.0178 31.039 74.6625 30.857C74.3071 30.6663 74.0298 30.4107 73.8305 30.09C73.6311 29.7693 73.5315 29.4097 73.5315 29.011ZM77.8605 29.427C77.9645 29.3143 78.0468 29.2017 78.1075 29.089C78.1681 28.9763 78.1985 28.8767 78.1985 28.79V28.01C77.9558 27.9147 77.7001 27.8453 77.4315 27.802C77.1628 27.75 76.8985 27.724 76.6385 27.724C76.1185 27.724 75.6938 27.828 75.3645 28.036C75.0438 28.244 74.8835 28.53 74.8835 28.894C74.8835 29.0933 74.9355 29.284 75.0395 29.466C75.1521 29.648 75.3081 29.7953 75.5075 29.908C75.7155 30.0207 75.9711 30.077 76.2745 30.077C76.5865 30.077 76.8855 30.0163 77.1715 29.895C77.4575 29.7737 77.6871 29.6177 77.8605 29.427ZM81.3764 21.51H82.8064V29.037C82.8064 29.3837 82.8584 29.6047 82.9624 29.7C83.0664 29.7953 83.1964 29.843 83.3524 29.843C83.5257 29.843 83.686 29.8257 83.8334 29.791C83.9894 29.7563 84.1237 29.713 84.2364 29.661L84.4444 30.792C84.2364 30.8787 83.9894 30.9523 83.7034 31.013C83.4174 31.0737 83.1617 31.104 82.9364 31.104C82.451 31.104 82.0697 30.9697 81.7924 30.701C81.515 30.4237 81.3764 30.0423 81.3764 29.557V21.51ZM87.7143 26.32C87.7143 25.7567 87.8139 25.2063 88.0133 24.669C88.2126 24.123 88.5029 23.629 88.8843 23.187C89.2743 22.7363 89.7466 22.381 90.3013 22.121C90.8559 21.8523 91.4843 21.718 92.1863 21.718C93.0183 21.718 93.7376 21.9087 94.3443 22.29C94.9509 22.6627 95.4016 23.1437 95.6963 23.733L94.5523 24.5C94.3789 24.1273 94.1579 23.8327 93.8893 23.616C93.6293 23.3993 93.3433 23.2477 93.0313 23.161C92.7279 23.0743 92.4289 23.031 92.1343 23.031C91.6489 23.031 91.2243 23.1307 90.8603 23.33C90.4963 23.5207 90.1886 23.7763 89.9373 24.097C89.6946 24.4177 89.5083 24.7773 89.3783 25.176C89.2569 25.5747 89.1963 25.9733 89.1963 26.372C89.1963 26.814 89.2699 27.243 89.4173 27.659C89.5646 28.0663 89.7683 28.4303 90.0283 28.751C90.2969 29.063 90.6133 29.31 90.9773 29.492C91.3413 29.674 91.7399 29.765 92.1733 29.765C92.4679 29.765 92.7756 29.713 93.0963 29.609C93.4169 29.505 93.7116 29.3447 93.9803 29.128C94.2576 28.9027 94.4743 28.608 94.6303 28.244L95.8393 28.933C95.6486 29.3923 95.3496 29.7823 94.9423 30.103C94.5436 30.4237 94.0929 30.6663 93.5903 30.831C93.0963 30.9957 92.6066 31.078 92.1213 31.078C91.4713 31.078 90.8776 30.9437 90.3403 30.675C89.8029 30.3977 89.3393 30.0337 88.9493 29.583C88.5593 29.1237 88.2559 28.6123 88.0393 28.049C87.8226 27.477 87.7143 26.9007 87.7143 26.32ZM96.51 29.011C96.51 28.5777 96.6313 28.2007 96.874 27.88C97.1253 27.5507 97.4677 27.2993 97.901 27.126C98.3343 26.944 98.837 26.853 99.409 26.853C99.7123 26.853 100.02 26.8747 100.332 26.918C100.653 26.9613 100.934 27.0307 101.177 27.126V26.697C101.177 26.2203 101.034 25.8477 100.748 25.579C100.462 25.3103 100.05 25.176 99.513 25.176C99.1317 25.176 98.772 25.2453 98.434 25.384C98.096 25.514 97.7363 25.7003 97.355 25.943L96.874 24.981C97.3247 24.6777 97.7753 24.4523 98.226 24.305C98.6853 24.1577 99.1663 24.084 99.669 24.084C100.579 24.084 101.294 24.3267 101.814 24.812C102.343 25.2887 102.607 25.969 102.607 26.853V29.388C102.607 29.5527 102.633 29.6697 102.685 29.739C102.746 29.8083 102.845 29.8473 102.984 29.856V31C102.854 31.026 102.737 31.0433 102.633 31.052C102.529 31.0607 102.442 31.065 102.373 31.065C102.07 31.065 101.84 30.9913 101.684 30.844C101.528 30.6967 101.437 30.5233 101.411 30.324L101.372 29.934C101.077 30.3153 100.7 30.61 100.241 30.818C99.7817 31.026 99.318 31.13 98.85 31.13C98.3993 31.13 97.9963 31.039 97.641 30.857C97.2857 30.6663 97.0083 30.4107 96.809 30.09C96.6097 29.7693 96.51 29.4097 96.51 29.011ZM100.839 29.427C100.943 29.3143 101.025 29.2017 101.086 29.089C101.147 28.9763 101.177 28.8767 101.177 28.79V28.01C100.934 27.9147 100.679 27.8453 100.41 27.802C100.141 27.75 99.877 27.724 99.617 27.724C99.097 27.724 98.6723 27.828 98.343 28.036C98.0223 28.244 97.862 28.53 97.862 28.894C97.862 29.0933 97.914 29.284 98.018 29.466C98.1307 29.648 98.2867 29.7953 98.486 29.908C98.694 30.0207 98.9497 30.077 99.253 30.077C99.565 30.077 99.864 30.0163 100.15 29.895C100.436 29.7737 100.666 29.6177 100.839 29.427ZM108.164 25.436C107.609 25.4447 107.115 25.5703 106.682 25.813C106.257 26.0557 105.954 26.398 105.772 26.84V31H104.342V24.201H105.668V25.722C105.902 25.254 106.21 24.8813 106.591 24.604C106.972 24.318 107.375 24.162 107.8 24.136C107.887 24.136 107.956 24.136 108.008 24.136C108.069 24.136 108.121 24.1403 108.164 24.149V25.436ZM112.158 31.13C111.63 31.13 111.149 31.039 110.715 30.857C110.291 30.6663 109.922 30.4107 109.61 30.09C109.298 29.7607 109.056 29.388 108.882 28.972C108.718 28.5473 108.635 28.0967 108.635 27.62C108.635 26.9787 108.783 26.3937 109.077 25.865C109.372 25.3277 109.784 24.8987 110.312 24.578C110.841 24.2487 111.461 24.084 112.171 24.084C112.882 24.084 113.493 24.2487 114.004 24.578C114.524 24.8987 114.927 25.3233 115.213 25.852C115.499 26.3807 115.642 26.9483 115.642 27.555C115.642 27.659 115.638 27.7587 115.629 27.854C115.621 27.9407 115.612 28.0143 115.603 28.075H110.156C110.182 28.4737 110.291 28.8247 110.481 29.128C110.681 29.4227 110.932 29.6567 111.235 29.83C111.539 29.9947 111.864 30.077 112.21 30.077C112.592 30.077 112.951 29.9817 113.289 29.791C113.636 29.6003 113.87 29.349 113.991 29.037L115.213 29.388C115.066 29.7173 114.841 30.0163 114.537 30.285C114.243 30.545 113.892 30.753 113.484 30.909C113.077 31.0563 112.635 31.13 112.158 31.13ZM110.117 27.126H114.225C114.199 26.736 114.087 26.3937 113.887 26.099C113.697 25.7957 113.45 25.5617 113.146 25.397C112.852 25.2237 112.522 25.137 112.158 25.137C111.803 25.137 111.474 25.2237 111.17 25.397C110.876 25.5617 110.633 25.7957 110.442 26.099C110.252 26.3937 110.143 26.736 110.117 27.126Z" fill="#485A64"></path>
</svg>
